<svg width="125" height="38" viewBox="0 0 125 38" fill="none" xmlns="http://www.w3.org/2000/svg">
<path fill-rule="evenodd" clip-rule="evenodd" d="M21.2799 4.28003C21.2799 3.17546 20.3845 2.28003 19.2799 2.28003H2C0.895427 2.28003 0 3.17546 0 4.28003V21.56C0 22.6646 0.895431 23.56 2 23.56H10.6649C10.6484 23.8113 10.64 24.0647 10.64 24.32C10.64 30.616 15.7439 35.72 22.0399 35.72C28.3359 35.72 33.4399 30.616 33.4399 24.32C33.4399 18.024 28.3359 12.92 22.0399 12.92C21.7846 12.92 21.5312 12.9284 21.2799 12.945V4.28003ZM10.6649 23.56C11.0395 17.8696 15.5895 13.3195 21.2799 12.945V21.56C21.2799 22.6646 20.3845 23.56 19.2799 23.56H10.6649Z" fill="#252432"/>
<path d="M59.5895 23.425C59.5895 24.425 59.3311 25.2667 58.8145 25.95C58.2978 26.6167 57.5978 27.125 56.7145 27.475C55.8478 27.825 54.8978 28 53.8645 28H45.2895V10.25H54.7895C55.6228 10.25 56.3395 10.475 56.9395 10.925C57.5561 11.3583 58.0228 11.925 58.3395 12.625C58.6728 13.3083 58.8395 14.025 58.8395 14.775C58.8395 15.625 58.6228 16.4333 58.1895 17.2C57.7561 17.9667 57.1228 18.5333 56.2895 18.9C57.3061 19.2 58.1061 19.7417 58.6895 20.525C59.2895 21.3083 59.5895 22.275 59.5895 23.425ZM56.1145 22.775C56.1145 22.325 56.0228 21.925 55.8395 21.575C55.6561 21.2083 55.4061 20.925 55.0895 20.725C54.7895 20.5083 54.4395 20.4 54.0395 20.4H48.7395V25.075H53.8645C54.2811 25.075 54.6561 24.975 54.9895 24.775C55.3395 24.5583 55.6145 24.275 55.8145 23.925C56.0145 23.575 56.1145 23.1917 56.1145 22.775ZM48.7395 13.2V17.675H53.3395C53.7228 17.675 54.0728 17.5833 54.3895 17.4C54.7061 17.2167 54.9561 16.9583 55.1395 16.625C55.3395 16.2917 55.4395 15.8917 55.4395 15.425C55.4395 14.975 55.3478 14.5833 55.1645 14.25C54.9978 13.9167 54.7645 13.6583 54.4645 13.475C54.1811 13.2917 53.8561 13.2 53.4895 13.2H48.7395ZM62.0607 30.55C62.3607 30.6167 62.6357 30.675 62.8857 30.725C63.1524 30.775 63.3774 30.8 63.5607 30.8C63.8774 30.8 64.1357 30.7167 64.3357 30.55C64.5524 30.4 64.7607 30.1167 64.9607 29.7C65.1607 29.3 65.3691 28.7333 65.5857 28L60.4107 14.9H63.8857L67.4107 24.575L70.5107 14.9H73.7107L68.2107 30.6C68.0107 31.1833 67.7024 31.7083 67.2857 32.175C66.8857 32.6583 66.3774 33.0333 65.7607 33.3C65.1607 33.5833 64.4857 33.725 63.7357 33.725C63.4691 33.725 63.2024 33.7 62.9357 33.65C62.6691 33.6167 62.3774 33.55 62.0607 33.45V30.55ZM83.3809 27.325C83.0975 27.4417 82.7559 27.575 82.3559 27.725C81.9559 27.875 81.5225 27.9917 81.0559 28.075C80.6059 28.175 80.1475 28.225 79.6809 28.225C79.0642 28.225 78.4975 28.1167 77.9809 27.9C77.4642 27.6833 77.0475 27.3417 76.7309 26.875C76.4309 26.3917 76.2809 25.7667 76.2809 25V17.475H74.5559V14.9H76.2809V10.65H79.6309V14.9H82.3809V17.475H79.6309V23.875C79.6475 24.325 79.7725 24.65 80.0059 24.85C80.2392 25.05 80.5309 25.15 80.8809 25.15C81.2309 25.15 81.5725 25.0917 81.9059 24.975C82.2392 24.8583 82.5059 24.7583 82.7059 24.675L83.3809 27.325ZM91.0541 28.25C90.0041 28.25 89.0541 28.075 88.2041 27.725C87.3541 27.3583 86.6291 26.8667 86.0291 26.25C85.4291 25.6167 84.9624 24.9 84.6291 24.1C84.3124 23.2833 84.1541 22.425 84.1541 21.525C84.1541 20.275 84.4291 19.1333 84.9791 18.1C85.5458 17.0667 86.3458 16.2417 87.3791 15.625C88.4291 14.9917 89.6624 14.675 91.0791 14.675C92.5124 14.675 93.7374 14.9917 94.7541 15.625C95.7708 16.2417 96.5458 17.0667 97.0791 18.1C97.6291 19.1167 97.9041 20.2167 97.9041 21.4C97.9041 21.6 97.8958 21.8083 97.8791 22.025C97.8624 22.225 97.8458 22.3917 97.8291 22.525H87.7041C87.7708 23.1917 87.9624 23.775 88.2791 24.275C88.6124 24.775 89.0291 25.1583 89.5291 25.425C90.0458 25.675 90.5958 25.8 91.1791 25.8C91.8458 25.8 92.4708 25.6417 93.0541 25.325C93.6541 24.9917 94.0624 24.5583 94.2791 24.025L97.1541 24.825C96.8374 25.4917 96.3791 26.0833 95.7791 26.6C95.1958 27.1167 94.5041 27.525 93.7041 27.825C92.9041 28.1083 92.0208 28.25 91.0541 28.25ZM87.6291 20.4H94.4791C94.4124 19.7333 94.2208 19.1583 93.9041 18.675C93.6041 18.175 93.2041 17.7917 92.7041 17.525C92.2041 17.2417 91.6458 17.1 91.0291 17.1C90.4291 17.1 89.8791 17.2417 89.3791 17.525C88.8958 17.7917 88.4958 18.175 88.1791 18.675C87.8791 19.1583 87.6958 19.7333 87.6291 20.4ZM107.624 28.125C106.207 28.125 104.999 27.8917 103.999 27.425C103.016 26.9417 102.216 26.2833 101.599 25.45C100.999 24.6167 100.557 23.675 100.274 22.625C99.9907 21.5583 99.849 20.45 99.849 19.3V10.25H103.299V19.3C103.299 20.0333 103.366 20.75 103.499 21.45C103.649 22.1333 103.891 22.75 104.224 23.3C104.557 23.85 104.999 24.2833 105.549 24.6C106.099 24.9167 106.782 25.075 107.599 25.075C108.432 25.075 109.124 24.9167 109.674 24.6C110.241 24.2667 110.682 23.825 110.999 23.275C111.332 22.725 111.574 22.1083 111.724 21.425C111.874 20.725 111.949 20.0167 111.949 19.3V10.25H115.374V19.3C115.374 20.5167 115.224 21.6583 114.924 22.725C114.641 23.7917 114.182 24.7333 113.549 25.55C112.932 26.35 112.132 26.9833 111.149 27.45C110.166 27.9 108.991 28.125 107.624 28.125ZM118.849 28V10.25H122.299V28H118.849Z" fill="#252432"/>
</svg>
